<svg id="Layer_1" data-name="Layer 1" xmlns="http://www.w3.org/2000/svg" width="200" height="60" viewBox="0 0 200 60">
  <title>wiktor-logo-white-skin</title>
  <g>
    <g>
      <path d="M45.08,19.61H38A1.9,1.9,0,0,0,36.09,21L31.88,33.9,27.67,21a1.92,1.92,0,0,0-1.94-1.37H20.38A1.91,1.91,0,0,0,18.45,21L14.24,33.9,10,21A1.91,1.91,0,0,0,8.1,19.61H1a1.31,1.31,0,0,0-1,.4,1.34,1.34,0,0,0-.4,1l.06.45,9,26.37a1.83,1.83,0,0,0,1.87,1.43h6.49A2,2,0,0,0,19,47.8l4-12,4,12A2,2,0,0,0,29,49.23h6.49a1.84,1.84,0,0,0,1.88-1.43l9-26.37.06-.45a1.37,1.37,0,0,0-1.36-1.37Z" fill="#fff"/>
      <path d="M58.65,19.61H51.48a1.47,1.47,0,0,0-1.08.45,1.52,1.52,0,0,0-.46,1.09V47.69a1.48,1.48,0,0,0,.46,1.08,1.44,1.44,0,0,0,1.08.46h7.17a1.44,1.44,0,0,0,1.08-.46,1.48,1.48,0,0,0,.46-1.08V21.15a1.52,1.52,0,0,0-.46-1.09A1.47,1.47,0,0,0,58.65,19.61Z" fill="#fff"/>
      <path d="M85,33.39,95.16,22.11a2.46,2.46,0,0,0,.51-.62,1.07,1.07,0,0,0,.12-.51,1.3,1.3,0,0,0-.4-1,1.31,1.31,0,0,0-1-.4H86.06a3.05,3.05,0,0,0-2.22,1l-7.51,8.2v-16A1.55,1.55,0,0,0,74.8,11.2H67.63a1.57,1.57,0,0,0-1.54,1.54V47.69a1.57,1.57,0,0,0,1.54,1.54H74.8a1.55,1.55,0,0,0,1.53-1.54V38.06l9,10.2a3,3,0,0,0,2.33,1h8.48a1.37,1.37,0,0,0,1.36-1.37A1.78,1.78,0,0,0,97,46.78Z" fill="#fff"/>
      <path d="M199,20.06a1.47,1.47,0,0,0-1.08-.45h-1.44a10.44,10.44,0,0,0-7.56,2.85V21.15a1.52,1.52,0,0,0-.46-1.09,1.47,1.47,0,0,0-1.08-.45h-6.6a1.47,1.47,0,0,0-1.08.45,1.52,1.52,0,0,0-.46,1.09V47.69a1.48,1.48,0,0,0,.46,1.08,1.44,1.44,0,0,0,1.08.46h7.17a1.44,1.44,0,0,0,1.08-.46,1.47,1.47,0,0,0,.45-1.08v-14a5.29,5.29,0,0,1,1.34-3.9,5.25,5.25,0,0,1,3.9-1.34h3.2A1.44,1.44,0,0,0,199,28a1.48,1.48,0,0,0,.46-1.08V21.15A1.52,1.52,0,0,0,199,20.06Z" fill="#fff"/>
      <path d="M55.07,5.31a5.55,5.55,0,0,0-3.92,1.51,4.86,4.86,0,0,0,0,7.26,5.58,5.58,0,0,0,3.94,1.51A5.5,5.5,0,0,0,59,14.08a4.88,4.88,0,0,0,0-7.26A5.53,5.53,0,0,0,55.07,5.31Z" fill="#fff"/>
      <path d="M121.18,41.75a1.82,1.82,0,0,0-1.76-1.35H114.8c-1.64,0-2.45-.91-2.45-2.74V28.44h5.75a1.57,1.57,0,0,0,1.54-1.54V21.15a1.55,1.55,0,0,0-1.54-1.54h-5.75V12.74a1.57,1.57,0,0,0-1.54-1.54h-7.16a1.55,1.55,0,0,0-1.54,1.54v6.87H99.64a1.47,1.47,0,0,0-1.08.45,1.52,1.52,0,0,0-.46,1.09V26.9A1.48,1.48,0,0,0,98.56,28a1.44,1.44,0,0,0,1.08.46h2.47V38a10.72,10.72,0,0,0,3.21,8.2,12.11,12.11,0,0,0,8.62,3h7.32a1.45,1.45,0,0,0,1.4-1.82Z" fill="#fff"/>
      <path d="M170.94,35.6c-.44.73-.91,1.47-1.43,2.23a1.35,1.35,0,0,1-2.28-.06c-2.76-4.8-2.76-12.17-2.76-12.17-5.57,3.39-12.67,3.35-16.26,3a1.34,1.34,0,0,1-1.06-2,8.49,8.49,0,0,0,1-4.37c-5.33,5.11-12.68,3.28-12.68,3.28.67,4.63-1.43,9.5-2.81,12.07a1.35,1.35,0,0,1-2.3.11c-.49-.75-.95-1.47-1.36-2.19-1.57.49-2.82,2.26-1.66,6,2,6.61,7.27,5.64,7.27,5.64C138.41,56.52,145.35,58,150,58s11.53-1.52,15.37-10.82c0,0,5.23,1,7.28-5.64C173.75,37.85,172.5,36.09,170.94,35.6ZM157.62,47.45a8.38,8.38,0,0,1-7.41,3.8,13.1,13.1,0,0,1-2.85-.32,1,1,0,0,1-.75-1.16,1,1,0,0,1,1.16-.75c2.14.46,6.06.74,8.2-2.62a1,1,0,1,1,1.65,1.05Zm-9.86-3.9a1,1,0,1,1,2,0,.71.71,0,0,0,.37.59,1,1,0,0,0,1-.1,1,1,0,1,1,1,1.67,3.1,3.1,0,0,1-1.62.48,2.68,2.68,0,0,1-1.31-.35A2.65,2.65,0,0,1,147.76,43.55Zm10.24.5a6.47,6.47,0,0,1-6.43-5.81,2.54,2.54,0,0,0-3.24,0,6.5,6.5,0,1,1-.16-2.21,4.47,4.47,0,0,1,1.78-.37,4.54,4.54,0,0,1,1.78.37,6.46,6.46,0,1,1,6.27,8Z" fill="#fac8af"/>
      <path d="M141.89,33.05a4.52,4.52,0,1,0,4.52,4.52A4.52,4.52,0,0,0,141.89,33.05Zm.22,6.36A1.84,1.84,0,1,1,144,37.57,1.84,1.84,0,0,1,142.11,39.41Z" fill="#fff"/>
      <path d="M158,33.05a4.52,4.52,0,1,0,4.52,4.52A4.52,4.52,0,0,0,158,33.05Zm-.16,6.36a1.84,1.84,0,1,1,1.84-1.84A1.84,1.84,0,0,1,157.84,39.41Z" fill="#fff"/>
      <path d="M175.93,18.06A16.16,16.16,0,0,0,166,8.29C164.68,6.06,160.19,0,149.92,0a29.15,29.15,0,0,0-4.48.36,70.56,70.56,0,0,1-10.51,1,19.51,19.51,0,0,1-4-.33,3.33,3.33,0,0,0-.7-.07,3.28,3.28,0,0,0-2.55,1.21A3.32,3.32,0,0,0,127,4.9a9.33,9.33,0,0,0,2.75,5,17.83,17.83,0,0,0-6,9.23c-1.2,4.67.42,12.33,4.25,14.72h0c-8.62-16.8,5.19-24,5.19-24a7.32,7.32,0,0,1-4.28-5.38,1.33,1.33,0,0,1,1.59-1.58c2.08.44,6.45.74,15.23-.63C160.26,0,164.62,9.89,164.62,9.89c8.09,2.6,14,11.07,7.28,24h0C177.06,30.13,177.13,21.57,175.93,18.06Z" fill="#fff"/>
    </g>
    <g>
      <path d="M195.43,11.32a1.55,1.55,0,0,0,.76-.56,1.6,1.6,0,0,0,.27-.94,1.5,1.5,0,0,0-.53-1.27,2.31,2.31,0,0,0-1.41-.39h-1.83a.31.31,0,0,0-.32.32v4.6a.29.29,0,0,0,.32.31h.24a.28.28,0,0,0,.31-.31v-1.6h1.28l1,1.64a.48.48,0,0,0,.42.27h.2a.29.29,0,0,0,.23-.09.3.3,0,0,0,.08-.22.39.39,0,0,0-.05-.2Zm-.94-.67h-1.25V9h1.25c.73,0,1.1.28,1.1.83S195.22,10.65,194.49,10.65Z" fill="#fff"/>
      <path d="M198.75,8.21a5.14,5.14,0,1,0-7,7,5.15,5.15,0,0,0,7.73-4.45A5,5,0,0,0,198.75,8.21ZM198,13a4.46,4.46,0,0,1-1.57,1.6,4.18,4.18,0,0,1-4.28,0,4.46,4.46,0,0,1-1.57-1.6,4.35,4.35,0,0,1,0-4.34A4.46,4.46,0,0,1,192.16,7a4.18,4.18,0,0,1,4.28,0A4.46,4.46,0,0,1,198,8.62,4.35,4.35,0,0,1,198,13Z" fill="#fff"/>
    </g>
  </g>
</svg>
